{"title":"Orange is the new black S04E02 720p WEBRip x264-TheRival","uid":14963079,"size":1007653183,"categoryP":"video","categoryS":"hd___tv_shows","magnet":"?xt=urn:btih:4780901f1add34aad286f283dfd17056bb5442fe&amp;dn=Orange+is+the+new+black+S04E02+720p+WEBRip+x264-TheRival&amp;tr=udp%3A%2F%2Ftracker.leechers-paradise.org%3A6969&amp;tr=udp%3A%2F%2Fzer0day.ch%3A1337&amp;tr=udp%3A%2F%2Fopen.demonii.com%3A1337&amp;tr=udp%3A%2F%2Ftracker.coppersurfer.tk%3A6969&amp;tr=udp%3A%2F%2Fexodus.desync.com%3A6969","seeders":101,"leechers":11,"uploader":"TheRival","files":2,"time":1466165769,"description":"Screens: \nhttp://extraimago.com/image/artu \nhttp://extraimago.com/image/artv\r\n\r\nVideo\r\nID : 1\r\nFormat : AVC\r\nFormat/Info : Advanced Video Codec\r\nFormat profile :   \r\nFormat settings, CABAC : Yes\r\nFormat settings, ReFrames : 2 frames\r\nFormat settings, GOP : M=1, N=24\r\nCodec ID : avc1\r\nCodec ID/Info : Advanced Video Coding\r\nDuration : 59mn 14s\r\nSource duration : 59mn 11s\r\nBit rate mode : Variable\r\nBit rate : 2 041 Kbps\r\nMaximum bit rate : 3 315 Kbps\r\nWidth : 1 280 pixels\r\nHeight : 720 pixels\r\nDisplay aspect ratio : 16:9\r\nFrame rate mode : Constant\r\nFrame rate : 23.976 (23976/1000) fps\r\nColor space : YUV\r\nChroma subsampling : 4:2:0\r\nBit depth : 8 bits\r\nScan type : Progressive\r\nBits/(Pixel*Frame) : 0.092\r\nStream size : 865 MiB (90%)\r\nSource stream size : 905 MiB (94%)\r\nEncoded date : UTC 2016-06-17 09:58:32\r\nTagged date : UTC 2016-06-17 10:06:33\r\nColor primaries : BT.709\r\nTransfer characteristics : BT.709\r\nMatrix coefficients : BT.709\r\n\r\nAudio\r\nID : 2\r\nFormat : AAC\r\nFormat/Info : Advanced Audio Codec\r\nFormat profile : LC\r\nCodec ID : 40\r\nDuration : 59mn 11s\r\nBit rate mode : Variable\r\nBit rate : 128 Kbps\r\nMaximum bit rate : 132 Kbps\r\nChannel(s) : 2 channels\r\nChannel positions : Front: L R\r\nSampling rate : 48.0 KHz\r\nFrame rate : 46.875 fps (1024 spf)\r\nCompression mode : Lossy\r\nStream size : 54.2 MiB (6%)\r\nTitle : English (aac 2.0)\r\nLanguage : English\r\nDefault : Yes\r\nAlternate group : 1","torrent":{"xt":"urn:btih:4780901f1add34aad286f283dfd17056bb5442fe","amp;dn":"Orange+is+the+new+black+S04E02+720p+WEBRip+x264-TheRival","amp;tr":["udp%3A%2F%2Ftracker.leechers-paradise.org%3A6969","udp%3A%2F%2Fzer0day.ch%3A1337","udp%3A%2F%2Fopen.demonii.com%3A1337","udp%3A%2F%2Ftracker.coppersurfer.tk%3A6969","udp%3A%2F%2Fexodus.desync.com%3A6969"],"infoHash":"4780901f1add34aad286f283dfd17056bb5442fe","infoHashBuffer":{"type":"Buffer","data":[71,128,144,31,26,221,52,170,210,134,242,131,223,209,112,86,187,84,66,254]},"announce":[],"urlList":[]}}